<?xml version="1.0" standalone="no"?>
<!DOCTYPE svg PUBLIC "-//W3C//DTD SVG 20010904//EN"
 "http://www.w3.org/TR/2001/REC-SVG-20010904/DTD/svg10.dtd">
<svg version="1.0" xmlns="http://www.w3.org/2000/svg"
 width="35.000000pt" height="34.000000pt" viewBox="0 0 35.000000 34.000000"
 preserveAspectRatio="xMidYMid meet">

<g transform="translate(0.000000,34.000000) scale(0.100000,-0.100000)"
fill="#000000" stroke="none">
<path d="M134 330 c-76 -18 -128 -82 -128 -160 0 -59 25 -104 74 -136 81 -54
203 -25 246 58 22 42 22 114 0 156 -32 61 -121 99 -192 82z m106 -95 c42 -38
31 -114 -21 -140 -33 -17 -69 -20 -69 -4 0 5 -4 8 -10 4 -13 -8 -48 29 -56 59
-8 32 14 77 46 94 30 15 86 9 110 -13z"/>
<path d="M204 204 c19 -18 20 -28 4 -57 -10 -20 -10 -21 5 -8 28 22 16 81 -16
81 -5 0 -1 -7 7 -16z"/>
<path d="M121 174 c0 -11 3 -14 6 -6 3 7 2 16 -1 19 -3 4 -6 -2 -5 -13z"/>
<path d="M156 156 c-4 -21 -5 -40 -2 -43 7 -8 18 42 14 64 -3 11 -7 3 -12 -21z"/>
</g>
</svg>
